<svg xmlns="http://www.w3.org/2000/svg" fill="none" viewBox="0 0 60 24" role="img" aria-label="Engine-logo" style="color: rgb(18, 18, 18); display: inline-flex; height: 32px;"><path fill="currentColor" d="M0 1.71h9.004v2.809h-6.13v3.458h6.13v2.808h-6.13v3.529h6.13v2.809H0V1.71ZM9.893 6.596h2.805v1.168a3.571 3.571 0 0 1 2.874-1.44c2.425 0 3.96 1.629 3.96 4.367v6.396h-2.875v-6.066c0-1.44-.634-2.277-1.916-2.277-1.281 0-1.974.779-1.974 2.549v5.806H9.893V6.596ZM33.43 2.029c1.016 0 1.72.72 1.72 1.758 0 1.039-.704 1.758-1.72 1.758s-1.72-.72-1.72-1.758.704-1.758 1.72-1.758ZM32.034 6.596h2.874v10.503h-2.874V6.596ZM35.785 6.596h2.805v1.168a3.571 3.571 0 0 1 2.875-1.44c2.424 0 3.96 1.629 3.96 4.367v6.396H42.55v-6.066c0-1.44-.635-2.277-1.916-2.277-1.282 0-1.974.779-1.974 2.549v5.806h-2.875V6.596Z"/><path fill="currentColor" fill-rule="evenodd" d="M46.048 11.812c0-3.068 2.378-5.476 5.367-5.476 2.99 0 5.357 2.479 5.357 5.547v.909h-8.046c.323 1.239 1.212 2.088 2.678 2.088s1.847-.46 2.17-1.31h3.06c-.832 2.349-2.552 3.789-5.23 3.789-2.678 0-5.356-2.479-5.356-5.547Zm2.955-1.298h4.917c-.38-1.039-1.339-1.57-2.424-1.57a2.8 2.8 0 0 0-2.493 1.57ZM28.294 7.693c-.682-.79-1.744-1.357-3.094-1.357-2.344 0-5.045 1.759-5.045 5.523 0 3.765 2.805 5.523 4.999 5.523 2.193 0 2.447-.578 3.14-1.404v1.11c0 1.38-.936 2.466-2.182 2.466-1.247 0-1.997-.484-2.367-1.334h-3.07c.6 2.337 2.493 4.06 5.437 4.06 2.943 0 5.021-2.077 5.021-5.264V6.62h-2.84v1.074Zm-2.575 7.01c-1.581 0-2.782-1.227-2.782-2.867s1.2-2.844 2.782-2.844 2.655 1.274 2.655 2.844c0 1.57-1.12 2.867-2.655 2.867Z" clip-rule="evenodd"/><path fill="currentColor" d="M56.602 6.655h.397v1.224h.31V6.655h.396v-.272h-1.103v.272ZM58.27 6.383h-.446V7.88h.3v-.45c0-.216-.004-.439-.012-.667l.348 1.117h.326l.346-1.115c-.008.227-.013.449-.013.664v.451h.301V6.383h-.435l-.252.834a5.304 5.304 0 0 0-.1.378h-.005a4.551 4.551 0 0 0-.032-.132 3.6 3.6 0 0 0-.074-.268l-.252-.812Z"/></svg>